<mxfile host="65bd71144e">
    <diagram id="NILHlRcc-u-NcvE4ia_s" name="Page-1">
        <mxGraphModel dx="1332" dy="998" grid="1" gridSize="10" guides="1" tooltips="1" connect="1" arrows="1" fold="1" page="1" pageScale="1" pageWidth="850" pageHeight="1100" math="0" shadow="0">
            <root>
                <mxCell id="0"/>
                <mxCell id="1" parent="0"/>
                <mxCell id="6" style="edgeStyle=none;html=1;entryX=0.5;entryY=0;entryDx=0;entryDy=0;" edge="1" parent="1" source="5">
                    <mxGeometry relative="1" as="geometry">
                        <mxPoint x="210" y="240" as="targetPoint"/>
                    </mxGeometry>
                </mxCell>
                <mxCell id="5" value="Start" style="ellipse;whiteSpace=wrap;html=1;" vertex="1" parent="1">
                    <mxGeometry x="151" y="40" width="120" height="80" as="geometry"/>
                </mxCell>
                <mxCell id="12" value="No" style="edgeStyle=none;html=1;" edge="1" parent="1" source="7" target="23">
                    <mxGeometry x="-0.0256" y="10" relative="1" as="geometry">
                        <mxPoint x="480" y="410.0000000000001" as="targetPoint"/>
                        <mxPoint as="offset"/>
                    </mxGeometry>
                </mxCell>
                <mxCell id="15" value="Yes" style="edgeStyle=none;html=1;entryX=0.5;entryY=0;entryDx=0;entryDy=0;" edge="1" parent="1" source="7" target="16">
                    <mxGeometry x="0.0004" y="-21" relative="1" as="geometry">
                        <mxPoint x="209.9999999999999" y="640" as="targetPoint"/>
                        <mxPoint as="offset"/>
                    </mxGeometry>
                </mxCell>
                <mxCell id="7" value="Correct Email &amp;amp; Password?" style="rhombus;whiteSpace=wrap;html=1;" vertex="1" parent="1">
                    <mxGeometry x="155" y="380" width="110" height="100" as="geometry"/>
                </mxCell>
                <mxCell id="10" style="edgeStyle=none;html=1;entryX=0.5;entryY=0;entryDx=0;entryDy=0;" edge="1" parent="1" source="8" target="7">
                    <mxGeometry relative="1" as="geometry"/>
                </mxCell>
                <mxCell id="8" value="Login&lt;br&gt;Email &amp;amp; Password" style="shape=parallelogram;perimeter=parallelogramPerimeter;whiteSpace=wrap;html=1;fixedSize=1;" vertex="1" parent="1">
                    <mxGeometry x="140" y="260" width="140" height="60" as="geometry"/>
                </mxCell>
                <mxCell id="31" style="edgeStyle=none;html=1;entryX=0.5;entryY=0;entryDx=0;entryDy=0;" edge="1" parent="1" source="13" target="30">
                    <mxGeometry relative="1" as="geometry"/>
                </mxCell>
                <mxCell id="13" value="Show Registration &lt;br&gt;Form" style="shape=parallelogram;perimeter=parallelogramPerimeter;whiteSpace=wrap;html=1;fixedSize=1;" vertex="1" parent="1">
                    <mxGeometry x="660" y="260" width="140" height="60" as="geometry"/>
                </mxCell>
                <mxCell id="19" value="Yes" style="edgeStyle=none;html=1;entryX=0.5;entryY=0;entryDx=0;entryDy=0;" edge="1" parent="1" source="16" target="18">
                    <mxGeometry x="-0.1039" y="-20" relative="1" as="geometry">
                        <mxPoint x="320" y="770" as="targetPoint"/>
                        <mxPoint as="offset"/>
                    </mxGeometry>
                </mxCell>
                <mxCell id="21" value="No" style="edgeStyle=none;html=1;entryX=0.5;entryY=0;entryDx=0;entryDy=0;exitX=1;exitY=0.5;exitDx=0;exitDy=0;" edge="1" parent="1" source="16" target="22">
                    <mxGeometry x="0.1156" y="-10" relative="1" as="geometry">
                        <mxPoint x="440" y="650" as="targetPoint"/>
                        <Array as="points">
                            <mxPoint x="340" y="610"/>
                            <mxPoint x="420" y="610"/>
                        </Array>
                        <mxPoint as="offset"/>
                    </mxGeometry>
                </mxCell>
                <mxCell id="16" value="Is Admin?" style="rhombus;whiteSpace=wrap;html=1;" vertex="1" parent="1">
                    <mxGeometry x="156" y="560" width="110" height="100" as="geometry"/>
                </mxCell>
                <mxCell id="18" value="Show Administrator &lt;br&gt;Page" style="shape=parallelogram;perimeter=parallelogramPerimeter;whiteSpace=wrap;html=1;fixedSize=1;" vertex="1" parent="1">
                    <mxGeometry x="140" y="750" width="140" height="60" as="geometry"/>
                </mxCell>
                <mxCell id="22" value="Redirect to &lt;br&gt;Homepage" style="shape=parallelogram;perimeter=parallelogramPerimeter;whiteSpace=wrap;html=1;fixedSize=1;" vertex="1" parent="1">
                    <mxGeometry x="350" y="750" width="140" height="60" as="geometry"/>
                </mxCell>
                <mxCell id="24" style="edgeStyle=none;html=1;entryX=0.5;entryY=1;entryDx=0;entryDy=0;exitX=1;exitY=0.5;exitDx=0;exitDy=0;" edge="1" parent="1" source="23" target="13">
                    <mxGeometry relative="1" as="geometry">
                        <Array as="points">
                            <mxPoint x="730" y="430"/>
                        </Array>
                    </mxGeometry>
                </mxCell>
                <mxCell id="28" value="No" style="edgeLabel;html=1;align=center;verticalAlign=middle;resizable=0;points=[];" vertex="1" connectable="0" parent="24">
                    <mxGeometry x="-0.0196" y="-2" relative="1" as="geometry">
                        <mxPoint x="18" y="-12" as="offset"/>
                    </mxGeometry>
                </mxCell>
                <mxCell id="29" value="Yes" style="edgeStyle=none;html=1;entryX=1;entryY=0.5;entryDx=0;entryDy=0;" edge="1" parent="1" source="23" target="8">
                    <mxGeometry x="-0.1343" y="-10" relative="1" as="geometry">
                        <Array as="points">
                            <mxPoint x="515" y="290"/>
                            <mxPoint x="370" y="290"/>
                        </Array>
                        <mxPoint as="offset"/>
                    </mxGeometry>
                </mxCell>
                <mxCell id="23" value="is Registered?" style="rhombus;whiteSpace=wrap;html=1;" vertex="1" parent="1">
                    <mxGeometry x="460" y="380" width="110" height="100" as="geometry"/>
                </mxCell>
                <mxCell id="33" style="edgeStyle=none;html=1;" edge="1" parent="1" source="30" target="32">
                    <mxGeometry relative="1" as="geometry"/>
                </mxCell>
                <mxCell id="30" value="Register User" style="rounded=0;whiteSpace=wrap;html=1;" vertex="1" parent="1">
                    <mxGeometry x="670" y="155" width="120" height="60" as="geometry"/>
                </mxCell>
                <mxCell id="35" style="edgeStyle=none;html=1;entryX=0.5;entryY=0;entryDx=0;entryDy=0;" edge="1" parent="1" source="32" target="8">
                    <mxGeometry relative="1" as="geometry">
                        <Array as="points">
                            <mxPoint x="210" y="185"/>
                        </Array>
                    </mxGeometry>
                </mxCell>
                <mxCell id="32" value="Go back to Login" style="shape=parallelogram;perimeter=parallelogramPerimeter;whiteSpace=wrap;html=1;fixedSize=1;" vertex="1" parent="1">
                    <mxGeometry x="460" y="160" width="140" height="50" as="geometry"/>
                </mxCell>
            </root>
        </mxGraphModel>
    </diagram>
</mxfile>